# xmcd CD database file
#
# Track frame offsets:
#	150
#	25715
#	55065
#	66812
#	84935
#	107215
#	124012
#	154890
#	167712
#
# Disc length: 2682 seconds
#
# Revision: 2
# Processed by: cddbd v1.5.2PL0 Copyright (c) Steve Scherf et al.
# Submitted via: CDex 1.70beta2
#
DISCID=6a0a7809
DTITLE=Anna Paula Sahdi/Margarth Webi - Xendra
DYEAR=1900
DGENRE=New Age
TTITLE0=Catú Marana
TTITLE1=Bonny Portmore
TTITLE2=Animus
TTITLE3=Shalom Alechem
TTITLE4=Meu caminho
TTITLE5=Greensleeves
TTITLE6=Encanto
TTITLE7=Avraham Avinu
TTITLE8=Cantar
EXTD=
EXTT0=
EXTT1=
EXTT2=
EXTT3=
EXTT4=
EXTT5=
EXTT6=
EXTT7=
EXTT8=
PLAYORDER=
